<svg width="14" height="15" viewBox="0 0 14 15" fill="none" xmlns="http://www.w3.org/2000/svg">
<path d="M1.5 1C1.23478 1 0.98043 1.10536 0.792893 1.29289C0.605357 1.48043 0.5 1.73478 0.5 2V3C0.5 3.26522 0.605357 3.51957 0.792893 3.70711C0.98043 3.89464 1.23478 4 1.5 4H2V13C2 13.5304 2.21071 14.0391 2.58579 14.4142C2.96086 14.7893 3.46957 15 4 15H10C10.5304 15 11.0391 14.7893 11.4142 14.4142C11.7893 14.0391 12 13.5304 12 13V4H12.5C12.7652 4 13.0196 3.89464 13.2071 3.70711C13.3946 3.51957 13.5 3.26522 13.5 3V2C13.5 1.73478 13.3946 1.48043 13.2071 1.29289C13.0196 1.10536 12.7652 1 12.5 1H9C9 0.734784 8.89464 0.48043 8.70711 0.292893C8.51957 0.105357 8.26522 0 8 0L6 0C5.73478 0 5.48043 0.105357 5.29289 0.292893C5.10536 0.48043 5 0.734784 5 1H1.5ZM4.5 5C4.63261 5 4.75979 5.05268 4.85355 5.14645C4.94732 5.24021 5 5.36739 5 5.5V12.5C5 12.6326 4.94732 12.7598 4.85355 12.8536C4.75979 12.9473 4.63261 13 4.5 13C4.36739 13 4.24021 12.9473 4.14645 12.8536C4.05268 12.7598 4 12.6326 4 12.5V5.5C4 5.36739 4.05268 5.24021 4.14645 5.14645C4.24021 5.05268 4.36739 5 4.5 5ZM7 5C7.13261 5 7.25979 5.05268 7.35355 5.14645C7.44732 5.24021 7.5 5.36739 7.5 5.5V12.5C7.5 12.6326 7.44732 12.7598 7.35355 12.8536C7.25979 12.9473 7.13261 13 7 13C6.86739 13 6.74021 12.9473 6.64645 12.8536C6.55268 12.7598 6.5 12.6326 6.5 12.5V5.5C6.5 5.36739 6.55268 5.24021 6.64645 5.14645C6.74021 5.05268 6.86739 5 7 5ZM10 5.5V12.5C10 12.6326 9.94732 12.7598 9.85355 12.8536C9.75979 12.9473 9.63261 13 9.5 13C9.36739 13 9.24021 12.9473 9.14645 12.8536C9.05268 12.7598 9 12.6326 9 12.5V5.5C9 5.36739 9.05268 5.24021 9.14645 5.14645C9.24021 5.05268 9.36739 5 9.5 5C9.63261 5 9.75979 5.05268 9.85355 5.14645C9.94732 5.24021 10 5.36739 10 5.5Z" fill="#DF4444"/>
</svg>
